<mxfile host="app.diagrams.net" agent="Mozilla/5.0 (Windows NT 10.0; Win64; x64) AppleWebKit/537.36 (KHTML, like Gecko) Chrome/127.0.0.0 Safari/537.36" version="24.7.6">
  <diagram name="Page-1" id="FuOyumMNo_7dlFJUyT5F">
    <mxGraphModel dx="1434" dy="780" grid="1" gridSize="10" guides="1" tooltips="1" connect="1" arrows="1" fold="1" page="1" pageScale="1" pageWidth="850" pageHeight="1100" math="0" shadow="0">
      <root>
        <mxCell id="0" />
        <mxCell id="1" parent="0" />
        <mxCell id="t_fSvMSdJhtkblxSwFbt-16" value="" style="rounded=0;whiteSpace=wrap;html=1;" vertex="1" parent="1">
          <mxGeometry x="20" y="50" width="140" height="460" as="geometry" />
        </mxCell>
        <mxCell id="t_fSvMSdJhtkblxSwFbt-2" value="" style="rounded=0;whiteSpace=wrap;html=1;movable=1;resizable=1;rotatable=1;deletable=1;editable=1;locked=0;connectable=1;imageWidth=10;imageHeight=10;" vertex="1" parent="1">
          <mxGeometry x="170" y="50" width="630" height="460" as="geometry" />
        </mxCell>
        <mxCell id="t_fSvMSdJhtkblxSwFbt-17" style="edgeStyle=orthogonalEdgeStyle;rounded=0;orthogonalLoop=1;jettySize=auto;html=1;" edge="1" parent="1" source="t_fSvMSdJhtkblxSwFbt-1" target="t_fSvMSdJhtkblxSwFbt-12">
          <mxGeometry relative="1" as="geometry" />
        </mxCell>
        <mxCell id="t_fSvMSdJhtkblxSwFbt-1" value="React (SPA&lt;span style=&quot;background-color: initial;&quot;&gt;)&lt;/span&gt;" style="sketch=0;pointerEvents=1;shadow=0;dashed=0;html=1;strokeColor=none;fillColor=#505050;labelPosition=center;verticalLabelPosition=bottom;verticalAlign=top;outlineConnect=0;align=center;shape=mxgraph.office.concepts.website;movable=1;resizable=1;rotatable=1;deletable=1;editable=1;locked=0;connectable=1;" vertex="1" parent="1">
          <mxGeometry x="40" y="236" width="59" height="49" as="geometry" />
        </mxCell>
        <mxCell id="t_fSvMSdJhtkblxSwFbt-24" style="edgeStyle=orthogonalEdgeStyle;rounded=0;orthogonalLoop=1;jettySize=auto;html=1;entryX=0;entryY=0.5;entryDx=0;entryDy=0;" edge="1" parent="1" source="t_fSvMSdJhtkblxSwFbt-12" target="t_fSvMSdJhtkblxSwFbt-22">
          <mxGeometry relative="1" as="geometry" />
        </mxCell>
        <mxCell id="t_fSvMSdJhtkblxSwFbt-12" value="API Gateway" style="sketch=0;points=[[0,0,0],[0.25,0,0],[0.5,0,0],[0.75,0,0],[1,0,0],[0,1,0],[0.25,1,0],[0.5,1,0],[0.75,1,0],[1,1,0],[0,0.25,0],[0,0.5,0],[0,0.75,0],[1,0.25,0],[1,0.5,0],[1,0.75,0]];outlineConnect=0;fontColor=#232F3E;fillColor=#8C4FFF;strokeColor=#ffffff;dashed=0;verticalLabelPosition=bottom;verticalAlign=top;align=center;html=1;fontSize=12;fontStyle=0;aspect=fixed;shape=mxgraph.aws4.resourceIcon;resIcon=mxgraph.aws4.api_gateway;" vertex="1" parent="1">
          <mxGeometry x="230" y="221.5" width="78" height="78" as="geometry" />
        </mxCell>
        <mxCell id="t_fSvMSdJhtkblxSwFbt-19" value="" style="image;sketch=0;aspect=fixed;html=1;points=[];align=center;fontSize=12;image=img/lib/mscae/Docker.svg;" vertex="1" parent="1">
          <mxGeometry x="440" y="50" width="50" height="41" as="geometry" />
        </mxCell>
        <mxCell id="t_fSvMSdJhtkblxSwFbt-22" value="&lt;div&gt;&lt;br&gt;&lt;/div&gt;&lt;div&gt;&lt;br&gt;&lt;/div&gt;&lt;div&gt;&lt;br&gt;&lt;/div&gt;&lt;div&gt;&lt;br&gt;&lt;/div&gt;&lt;div&gt;&lt;br&gt;&lt;/div&gt;Identity service" style="shape=process;whiteSpace=wrap;html=1;backgroundOutline=1;" vertex="1" parent="1">
          <mxGeometry x="410" y="120" width="190" height="60" as="geometry" />
        </mxCell>
        <mxCell id="t_fSvMSdJhtkblxSwFbt-25" value="" style="image;aspect=fixed;html=1;points=[];align=center;fontSize=12;image=img/lib/azure2/databases/SQL_Server.svg;" vertex="1" parent="1">
          <mxGeometry x="530" y="126" width="48" height="48" as="geometry" />
        </mxCell>
        <mxCell id="t_fSvMSdJhtkblxSwFbt-26" value="" style="shape=image;verticalLabelPosition=bottom;labelBackgroundColor=default;verticalAlign=top;aspect=fixed;imageAspect=0;image=data:image/png,iVBORw0KGgoAAAANSUhEUgAAAIAAAACACAMAAAD04JH5AAAAaVBMVEVcLZFtQpz///9kNpZQHYn6+PtqPZqfg76njsT39fpzSqGafLrg2OrOwN6tlshWJY20nsu7p9HTxuGObbLn4e/d1OR8VqZ3UKOGYq2RcrX19vTIuNq9q8+CXqvUyuDv7fDr6e3w6/VFD4IGle9+AAAH4klEQVR4nL2b62KrIAyARSZSb7X1rrVdz/s/5AG8FJSbVpcf2+qs+QwhCREdd4d4UZfirK8AhI4DIaj6DKdd5O25lrP1C3mH+8CRCQx63EWnAngxrqS6OalwvMkS9gBeHAKT9kFAuIHBFiDCcrsrJMC2Y2EHcM+2aB8kux8GEJfb1VMpu0MA7v0+9QzBbAUTQLTD+LxkJl/QA3gYfqefRAesnxFagLtx1ttIoB0HDYCHj1BPRWcENUB0yO0PUqk9QQnQfT36vEDljFQBHGb+SfAmAK85Wj+ZkHJHkAK8d4Y+vZRvW4D8QPfjpcrtAPIvYq9eAgnBGiDvgWXeP4RgBfCuATiPoFr5wRLAywA4k6BczoUlQAjAuQSNHiAB4GwCrAOIATifoFMD5AH4AwIYKQEyAP6CQHBEHiABSzmJAMsBniv9pxHcpQC1BOAkgsqTAKwH4EQCvAbI5fpPIvjMhBkgVAGcQ5AtAe5K/ScRxAuAZQg4naAXAWKd/nMIOgFAYgDIREJw/fn5uc6fflZyHc+Ry9IEjtID/JQIltigSXBSzwR4KUl/da5Bsjo+yuc6dw5ANgWGieKvbHC9u56bTncCL64onpv8wJ/QVcjls97JPgDSGFCQa3nuu0ILgmvsXgQAchonFxcTgMa9zEco1fw3B+BEM4A0CI6hoptMAD4Ax1hgCIcUwCs1AG6zIJAAPEKfk5L6wOcjLUO7+YSQc6bAGwHkc5AAeBdxfFQAzb+rchZcI3J6+DmBA2DBiAJgFYD7oJe/QYFAAhBeNUtpCuDLTwgHAPkIMACfRYtMIJAB/MguzwPITwAeA1CkAfpFHNDrF9zRQwHoGDjKQoB+MbkmbJZAjuBIAMwApJXQCABJOCBzp0ccwYEAFQVQVSIDAKrpXLlzJoDrSLgbwMkJgCoRjhaAqRCRAUBHAnQEQOECE8AwHV5zRD4WABMAVSkyAUCWNGKoAzDGARVA7zqKKMBZAN4oQQjVAM2/RSC0Bgg8R1kNzwAA0L7GvG5kALdJDQOIfa4cqBcEWgAYOcpi7AMAWW6bIvIAACEHIEi6UKYFcDrnZmEByEfkEQDwAHw5kGwCSB15JhIBUEBzaiRYYMyN31oAO8oFCQcAoM8uDQUAMAM8mnAWWg5sAMgc5YKABwCQpm6vhgIAcGT1wKZZ4PSOIhMsAFBJFT2RCADmOKC6vhGgclRhQAQAkBVwGIoA4NtI6AAnsAMA6EnTYolEAPQtALQGgPVliMgCAAi+BlDpXwKMaTGEogW+BXDsAQCrTd4BPBjAdgimtPhwDgWw9wEwpcX6cSyAOA0h0gAMafF+WwH4++MAEAIRAlkPNQCQtrq99xpA94jPFIi4UIx6Un09kBoAwMeYcUQADALIyRaAnk9GLNbM9acMYEiLKwDvwsvCJfQADZeOh4vN63EZwFibLAEW4m8AwEJBkpPKYky6CoAhLR4IkPIlGbu9KBidoHAvEgBUvonBeQDR/ushoNdRz9NOKEphneJJPwiILNVTlYt/BJxInXB9hP9nJJbln74cVYW4FSEQjiPx0ygAKRWphJTl+h7pVtkK0GuWZn9CgDWL0z8h6DTL878ggLmmQfEXBJWuRSMTxKaZfHLsIcC6JtVaIOr9JE1CZSG9mSDWtenW+uu4ZaG2zVYBch/B2KZTNCpX+v3WffpZ3SRFaAKwJBgblXZjAMO29QcfAMoybiPB1Kq1GQNU5q0v3Dhi3ZNx/e6gKYwTF0XTytUgc7PaZh6QVUEnVqhl+oyKB3MH1NxqlMSY6AY4fsaY/LYgmNv1VrEoEl0P+i/3t8jdNkWsXMYdXbuisnDbnPhKYEPweWCheWo52btuBUrYEI8gv8NfWsLBtC2KrKxpEXELQNW5D4tR4B7ZmN2QKBQfrheuTxdVxJELZoFXDxEiS2iqGQX5q0RGAv6hlTEnk2KJh4RZO7XQizZDxEHYLZMPJS1AnMfY1dPpFx7bGVMialq+aQ/9USMt1ENIABJ257+vB5OCdRL0BOKDS5MJUN/+frq1FGCsXYn1fQrAWhflqx3k1eKpg2EwgNXD68HUfMN6bQEGUL1+K3aUKxpVAMuH16aJQPxrrpdpWuB8oAQjAJ2r9djY+3xTrn/1+N4cCwriKDQTI/bj6YZsFjS0aTIBMGdEY5DUEkg2MJjCIaxzt/CJhaswbiDKxjjwevVoBqDxOiXWLx8pjyABkGzhcD1DZQRLko3b31fL0jEkIYhGwpzGR+KJY1c5I7ExIqEQ620g3cRi9ENEQn78vD8wy12wSmjUD8ZcMMbp4WhaL4qmJYB8G485J5FqjIS7sSSjf0zrGOjMHU16DoTLb6oGQATwDl2jqAmUW7mWm9lOItBsZjt6kSIn0Gzn21Si7yXQbmi0qAy+JTBs6TzVESlBb9rUOm7rPYvAvK2XEPTnAfQWG5uHrdV/pl+6uf2sUagtN7cTglM8MbPe3k/mwgmzMdzwgoN7QkRKFIqUL7nEh+aFIFbpUb/mkx/oilL3MwG43mHDoDK/AYDUSIcYoX/qdBhedjvACLrbNwIQT/hyQobq0bcDoK977ldv8dqnzSufexEy5dzbCEAQdgxEeNxLr1TyZFOOLBPT2G8FIDPiji07miW+H//i88iQGCNDnWzQvhWASh4nmcISZZbEtpbfD0DFy+MbDrO6pI2IICjrLMS3ON/1+v9/id6MwXXoq9sAAAAASUVORK5CYII=;" vertex="1" parent="1">
          <mxGeometry x="440" y="126" width="48" height="48" as="geometry" />
        </mxCell>
        <mxCell id="t_fSvMSdJhtkblxSwFbt-27" value="&lt;div&gt;&lt;br&gt;&lt;/div&gt;&lt;div&gt;&lt;br&gt;&lt;/div&gt;&lt;div&gt;&lt;br&gt;&lt;/div&gt;&lt;div&gt;&lt;br&gt;&lt;/div&gt;&lt;div&gt;&lt;br&gt;&lt;/div&gt;&lt;div&gt;&lt;br&gt;&lt;/div&gt;&lt;div&gt;&lt;br&gt;&lt;/div&gt;Send Message&lt;span style=&quot;background-color: initial;&quot;&gt;&amp;nbsp;service&lt;/span&gt;" style="shape=process;whiteSpace=wrap;html=1;backgroundOutline=1;" vertex="1" parent="1">
          <mxGeometry x="410" y="210" width="190" height="80" as="geometry" />
        </mxCell>
        <mxCell id="t_fSvMSdJhtkblxSwFbt-29" value="" style="shape=image;verticalLabelPosition=bottom;labelBackgroundColor=default;verticalAlign=top;aspect=fixed;imageAspect=0;image=data:image/png,iVBORw0KGgoAAAANSUhEUgAAAIAAAACACAMAAAD04JH5AAAAaVBMVEVcLZFtQpz///9kNpZQHYn6+PtqPZqfg76njsT39fpzSqGafLrg2OrOwN6tlshWJY20nsu7p9HTxuGObbLn4e/d1OR8VqZ3UKOGYq2RcrX19vTIuNq9q8+CXqvUyuDv7fDr6e3w6/VFD4IGle9+AAAH4klEQVR4nL2b62KrIAyARSZSb7X1rrVdz/s/5AG8FJSbVpcf2+qs+QwhCREdd4d4UZfirK8AhI4DIaj6DKdd5O25lrP1C3mH+8CRCQx63EWnAngxrqS6OalwvMkS9gBeHAKT9kFAuIHBFiDCcrsrJMC2Y2EHcM+2aB8kux8GEJfb1VMpu0MA7v0+9QzBbAUTQLTD+LxkJl/QA3gYfqefRAesnxFagLtx1ttIoB0HDYCHj1BPRWcENUB0yO0PUqk9QQnQfT36vEDljFQBHGb+SfAmAK85Wj+ZkHJHkAK8d4Y+vZRvW4D8QPfjpcrtAPIvYq9eAgnBGiDvgWXeP4RgBfCuATiPoFr5wRLAywA4k6BczoUlQAjAuQSNHiAB4GwCrAOIATifoFMD5AH4AwIYKQEyAP6CQHBEHiABSzmJAMsBniv9pxHcpQC1BOAkgsqTAKwH4EQCvAbI5fpPIvjMhBkgVAGcQ5AtAe5K/ScRxAuAZQg4naAXAWKd/nMIOgFAYgDIREJw/fn5uc6fflZyHc+Ry9IEjtID/JQIltigSXBSzwR4KUl/da5Bsjo+yuc6dw5ANgWGieKvbHC9u56bTncCL64onpv8wJ/QVcjls97JPgDSGFCQa3nuu0ILgmvsXgQAchonFxcTgMa9zEco1fw3B+BEM4A0CI6hoptMAD4Ax1hgCIcUwCs1AG6zIJAAPEKfk5L6wOcjLUO7+YSQc6bAGwHkc5AAeBdxfFQAzb+rchZcI3J6+DmBA2DBiAJgFYD7oJe/QYFAAhBeNUtpCuDLTwgHAPkIMACfRYtMIJAB/MguzwPITwAeA1CkAfpFHNDrF9zRQwHoGDjKQoB+MbkmbJZAjuBIAMwApJXQCABJOCBzp0ccwYEAFQVQVSIDAKrpXLlzJoDrSLgbwMkJgCoRjhaAqRCRAUBHAnQEQOECE8AwHV5zRD4WABMAVSkyAUCWNGKoAzDGARVA7zqKKMBZAN4oQQjVAM2/RSC0Bgg8R1kNzwAA0L7GvG5kALdJDQOIfa4cqBcEWgAYOcpi7AMAWW6bIvIAACEHIEi6UKYFcDrnZmEByEfkEQDwAHw5kGwCSB15JhIBUEBzaiRYYMyN31oAO8oFCQcAoM8uDQUAMAM8mnAWWg5sAMgc5YKABwCQpm6vhgIAcGT1wKZZ4PSOIhMsAFBJFT2RCADmOKC6vhGgclRhQAQAkBVwGIoA4NtI6AAnsAMA6EnTYolEAPQtALQGgPVliMgCAAi+BlDpXwKMaTGEogW+BXDsAQCrTd4BPBjAdgimtPhwDgWw9wEwpcX6cSyAOA0h0gAMafF+WwH4++MAEAIRAlkPNQCQtrq99xpA94jPFIi4UIx6Un09kBoAwMeYcUQADALIyRaAnk9GLNbM9acMYEiLKwDvwsvCJfQADZeOh4vN63EZwFibLAEW4m8AwEJBkpPKYky6CoAhLR4IkPIlGbu9KBidoHAvEgBUvonBeQDR/ushoNdRz9NOKEphneJJPwiILNVTlYt/BJxInXB9hP9nJJbln74cVYW4FSEQjiPx0ygAKRWphJTl+h7pVtkK0GuWZn9CgDWL0z8h6DTL878ggLmmQfEXBJWuRSMTxKaZfHLsIcC6JtVaIOr9JE1CZSG9mSDWtenW+uu4ZaG2zVYBch/B2KZTNCpX+v3WffpZ3SRFaAKwJBgblXZjAMO29QcfAMoybiPB1Kq1GQNU5q0v3Dhi3ZNx/e6gKYwTF0XTytUgc7PaZh6QVUEnVqhl+oyKB3MH1NxqlMSY6AY4fsaY/LYgmNv1VrEoEl0P+i/3t8jdNkWsXMYdXbuisnDbnPhKYEPweWCheWo52btuBUrYEI8gv8NfWsLBtC2KrKxpEXELQNW5D4tR4B7ZmN2QKBQfrheuTxdVxJELZoFXDxEiS2iqGQX5q0RGAv6hlTEnk2KJh4RZO7XQizZDxEHYLZMPJS1AnMfY1dPpFx7bGVMialq+aQ/9USMt1ENIABJ257+vB5OCdRL0BOKDS5MJUN/+frq1FGCsXYn1fQrAWhflqx3k1eKpg2EwgNXD68HUfMN6bQEGUL1+K3aUKxpVAMuH16aJQPxrrpdpWuB8oAQjAJ2r9djY+3xTrn/1+N4cCwriKDQTI/bj6YZsFjS0aTIBMGdEY5DUEkg2MJjCIaxzt/CJhaswbiDKxjjwevVoBqDxOiXWLx8pjyABkGzhcD1DZQRLko3b31fL0jEkIYhGwpzGR+KJY1c5I7ExIqEQ620g3cRi9ENEQn78vD8wy12wSmjUD8ZcMMbp4WhaL4qmJYB8G485J5FqjIS7sSSjf0zrGOjMHU16DoTLb6oGQATwDl2jqAmUW7mWm9lOItBsZjt6kSIn0Gzn21Si7yXQbmi0qAy+JTBs6TzVESlBb9rUOm7rPYvAvK2XEPTnAfQWG5uHrdV/pl+6uf2sUagtN7cTglM8MbPe3k/mwgmzMdzwgoN7QkRKFIqUL7nEh+aFIFbpUb/mkx/oilL3MwG43mHDoDK/AYDUSIcYoX/qdBhedjvACLrbNwIQT/hyQobq0bcDoK977ldv8dqnzSufexEy5dzbCEAQdgxEeNxLr1TyZFOOLBPT2G8FIDPiji07miW+H//i88iQGCNDnWzQvhWASh4nmcISZZbEtpbfD0DFy+MbDrO6pI2IICjrLMS3ON/1+v9/id6MwXXoq9sAAAAASUVORK5CYII=;" vertex="1" parent="1">
          <mxGeometry x="440" y="221.5" width="48" height="48" as="geometry" />
        </mxCell>
        <mxCell id="t_fSvMSdJhtkblxSwFbt-31" style="edgeStyle=orthogonalEdgeStyle;rounded=0;orthogonalLoop=1;jettySize=auto;html=1;entryX=0.026;entryY=0.625;entryDx=0;entryDy=0;entryPerimeter=0;" edge="1" parent="1">
          <mxGeometry relative="1" as="geometry">
            <mxPoint x="304" y="260.5" as="sourcePoint" />
            <mxPoint x="410.94000000000005" y="260" as="targetPoint" />
          </mxGeometry>
        </mxCell>
        <mxCell id="t_fSvMSdJhtkblxSwFbt-43" style="edgeStyle=orthogonalEdgeStyle;rounded=0;orthogonalLoop=1;jettySize=auto;html=1;entryX=0.5;entryY=1;entryDx=0;entryDy=0;" edge="1" parent="1" source="t_fSvMSdJhtkblxSwFbt-32" target="t_fSvMSdJhtkblxSwFbt-38">
          <mxGeometry relative="1" as="geometry" />
        </mxCell>
        <mxCell id="t_fSvMSdJhtkblxSwFbt-32" value="&lt;div&gt;&lt;br&gt;&lt;/div&gt;&lt;div&gt;&lt;br&gt;&lt;/div&gt;&lt;div&gt;&lt;br&gt;&lt;/div&gt;&lt;div&gt;&lt;br&gt;&lt;/div&gt;&lt;div&gt;&lt;br&gt;&lt;/div&gt;&lt;div&gt;&lt;br&gt;&lt;/div&gt;&lt;div&gt;&lt;br&gt;&lt;/div&gt;Get Message(s)&lt;span style=&quot;background-color: initial;&quot;&gt;&amp;nbsp;service&lt;/span&gt;" style="shape=process;whiteSpace=wrap;html=1;backgroundOutline=1;" vertex="1" parent="1">
          <mxGeometry x="410" y="330" width="190" height="80" as="geometry" />
        </mxCell>
        <mxCell id="t_fSvMSdJhtkblxSwFbt-34" value="" style="shape=image;verticalLabelPosition=bottom;labelBackgroundColor=default;verticalAlign=top;aspect=fixed;imageAspect=0;image=data:image/png,iVBORw0KGgoAAAANSUhEUgAAAIAAAACACAMAAAD04JH5AAAAaVBMVEVcLZFtQpz///9kNpZQHYn6+PtqPZqfg76njsT39fpzSqGafLrg2OrOwN6tlshWJY20nsu7p9HTxuGObbLn4e/d1OR8VqZ3UKOGYq2RcrX19vTIuNq9q8+CXqvUyuDv7fDr6e3w6/VFD4IGle9+AAAH4klEQVR4nL2b62KrIAyARSZSb7X1rrVdz/s/5AG8FJSbVpcf2+qs+QwhCREdd4d4UZfirK8AhI4DIaj6DKdd5O25lrP1C3mH+8CRCQx63EWnAngxrqS6OalwvMkS9gBeHAKT9kFAuIHBFiDCcrsrJMC2Y2EHcM+2aB8kux8GEJfb1VMpu0MA7v0+9QzBbAUTQLTD+LxkJl/QA3gYfqefRAesnxFagLtx1ttIoB0HDYCHj1BPRWcENUB0yO0PUqk9QQnQfT36vEDljFQBHGb+SfAmAK85Wj+ZkHJHkAK8d4Y+vZRvW4D8QPfjpcrtAPIvYq9eAgnBGiDvgWXeP4RgBfCuATiPoFr5wRLAywA4k6BczoUlQAjAuQSNHiAB4GwCrAOIATifoFMD5AH4AwIYKQEyAP6CQHBEHiABSzmJAMsBniv9pxHcpQC1BOAkgsqTAKwH4EQCvAbI5fpPIvjMhBkgVAGcQ5AtAe5K/ScRxAuAZQg4naAXAWKd/nMIOgFAYgDIREJw/fn5uc6fflZyHc+Ry9IEjtID/JQIltigSXBSzwR4KUl/da5Bsjo+yuc6dw5ANgWGieKvbHC9u56bTncCL64onpv8wJ/QVcjls97JPgDSGFCQa3nuu0ILgmvsXgQAchonFxcTgMa9zEco1fw3B+BEM4A0CI6hoptMAD4Ax1hgCIcUwCs1AG6zIJAAPEKfk5L6wOcjLUO7+YSQc6bAGwHkc5AAeBdxfFQAzb+rchZcI3J6+DmBA2DBiAJgFYD7oJe/QYFAAhBeNUtpCuDLTwgHAPkIMACfRYtMIJAB/MguzwPITwAeA1CkAfpFHNDrF9zRQwHoGDjKQoB+MbkmbJZAjuBIAMwApJXQCABJOCBzp0ccwYEAFQVQVSIDAKrpXLlzJoDrSLgbwMkJgCoRjhaAqRCRAUBHAnQEQOECE8AwHV5zRD4WABMAVSkyAUCWNGKoAzDGARVA7zqKKMBZAN4oQQjVAM2/RSC0Bgg8R1kNzwAA0L7GvG5kALdJDQOIfa4cqBcEWgAYOcpi7AMAWW6bIvIAACEHIEi6UKYFcDrnZmEByEfkEQDwAHw5kGwCSB15JhIBUEBzaiRYYMyN31oAO8oFCQcAoM8uDQUAMAM8mnAWWg5sAMgc5YKABwCQpm6vhgIAcGT1wKZZ4PSOIhMsAFBJFT2RCADmOKC6vhGgclRhQAQAkBVwGIoA4NtI6AAnsAMA6EnTYolEAPQtALQGgPVliMgCAAi+BlDpXwKMaTGEogW+BXDsAQCrTd4BPBjAdgimtPhwDgWw9wEwpcX6cSyAOA0h0gAMafF+WwH4++MAEAIRAlkPNQCQtrq99xpA94jPFIi4UIx6Un09kBoAwMeYcUQADALIyRaAnk9GLNbM9acMYEiLKwDvwsvCJfQADZeOh4vN63EZwFibLAEW4m8AwEJBkpPKYky6CoAhLR4IkPIlGbu9KBidoHAvEgBUvonBeQDR/ushoNdRz9NOKEphneJJPwiILNVTlYt/BJxInXB9hP9nJJbln74cVYW4FSEQjiPx0ygAKRWphJTl+h7pVtkK0GuWZn9CgDWL0z8h6DTL878ggLmmQfEXBJWuRSMTxKaZfHLsIcC6JtVaIOr9JE1CZSG9mSDWtenW+uu4ZaG2zVYBch/B2KZTNCpX+v3WffpZ3SRFaAKwJBgblXZjAMO29QcfAMoybiPB1Kq1GQNU5q0v3Dhi3ZNx/e6gKYwTF0XTytUgc7PaZh6QVUEnVqhl+oyKB3MH1NxqlMSY6AY4fsaY/LYgmNv1VrEoEl0P+i/3t8jdNkWsXMYdXbuisnDbnPhKYEPweWCheWo52btuBUrYEI8gv8NfWsLBtC2KrKxpEXELQNW5D4tR4B7ZmN2QKBQfrheuTxdVxJELZoFXDxEiS2iqGQX5q0RGAv6hlTEnk2KJh4RZO7XQizZDxEHYLZMPJS1AnMfY1dPpFx7bGVMialq+aQ/9USMt1ENIABJ257+vB5OCdRL0BOKDS5MJUN/+frq1FGCsXYn1fQrAWhflqx3k1eKpg2EwgNXD68HUfMN6bQEGUL1+K3aUKxpVAMuH16aJQPxrrpdpWuB8oAQjAJ2r9djY+3xTrn/1+N4cCwriKDQTI/bj6YZsFjS0aTIBMGdEY5DUEkg2MJjCIaxzt/CJhaswbiDKxjjwevVoBqDxOiXWLx8pjyABkGzhcD1DZQRLko3b31fL0jEkIYhGwpzGR+KJY1c5I7ExIqEQ620g3cRi9ENEQn78vD8wy12wSmjUD8ZcMMbp4WhaL4qmJYB8G485J5FqjIS7sSSjf0zrGOjMHU16DoTLb6oGQATwDl2jqAmUW7mWm9lOItBsZjt6kSIn0Gzn21Si7yXQbmi0qAy+JTBs6TzVESlBb9rUOm7rPYvAvK2XEPTnAfQWG5uHrdV/pl+6uf2sUagtN7cTglM8MbPe3k/mwgmzMdzwgoN7QkRKFIqUL7nEh+aFIFbpUb/mkx/oilL3MwG43mHDoDK/AYDUSIcYoX/qdBhedjvACLrbNwIQT/hyQobq0bcDoK977ldv8dqnzSufexEy5dzbCEAQdgxEeNxLr1TyZFOOLBPT2G8FIDPiji07miW+H//i88iQGCNDnWzQvhWASh4nmcISZZbEtpbfD0DFy+MbDrO6pI2IICjrLMS3ON/1+v9/id6MwXXoq9sAAAAASUVORK5CYII=;" vertex="1" parent="1">
          <mxGeometry x="442" y="346" width="48" height="48" as="geometry" />
        </mxCell>
        <mxCell id="t_fSvMSdJhtkblxSwFbt-35" style="edgeStyle=orthogonalEdgeStyle;rounded=0;orthogonalLoop=1;jettySize=auto;html=1;entryX=-0.005;entryY=0.625;entryDx=0;entryDy=0;entryPerimeter=0;" edge="1" parent="1" source="t_fSvMSdJhtkblxSwFbt-12" target="t_fSvMSdJhtkblxSwFbt-32">
          <mxGeometry relative="1" as="geometry" />
        </mxCell>
        <mxCell id="t_fSvMSdJhtkblxSwFbt-36" value="" style="shape=image;verticalLabelPosition=bottom;labelBackgroundColor=default;verticalAlign=top;aspect=fixed;imageAspect=0;image=data:image/png,iVBORw0KGgoAAAANSUhEUgAAAOEAAADhCAMAAAAJbSJIAAABKVBMVEX///9DmTRFpThAlDNGoDdPqkFXrkdKpzxgsk+Uel7+/f1QOCxSq0T8+/uUeFqTel708u+6qJbu6uafgmRPNihPNyxPNSdZrkrg3NqGd3BGKhpFpzjz8O3l4uBQOi1DJhHDvLlZQTT2+vXCwaeZgWaznojOycZtWU/Jw8DUyb5JMCChl5LR5c7j8eFLoD3y+PGsqovMy7SpknqyqaXN5shosVy3tpnc28jIu6+9rp7Yz8WRhH5fSDtrVkuek42Fdm53Zl6727SczJNzvmOQw4ip1KKGwX07oydxv2G0161/wnPD379Vs0Ok0Z2m1KB0uWlapE52sW2HuYB8s3Q6qClQnEQ0lSNpqVddm018qmaSrHhvnlugrIKDomp6qmNlq1qtupY2DAA+HAEdo0aAAAAR8klEQVR4nO2dCVvbRhrHbcc2IFlghCzLh2SLgA8ZA0UkwUg+QhIIR0rabmi3m+7B9/8Q+87oGp12uqHWePm3eR6ERvL89L7zHiOnzWSe9axnPWvVtLu77Bk8tU5Plz2Dp9bbixU34u7F+sGy5/C0Gr5rvF9tI34oVgsrbcTT9fX1xiWz7Gk8nYYfgTCfW10jDu+LQHiYe7XsiTyVDt4hwPV8/urtsqfyNDr9iAHXD/P5w+GyJ/MUOrUsiAkblyuYMW5tC2LC/NrqVTYeICbMlz6sGOLtx3VXpTxGvF4pRBLQsiE46vWyZ/Ud5QN0CPON1UE89QG6hKuTFoc3RR9hySHMP9wue27fRbsXd3GE+epKNPzXd0U/YdUjzL1agSL8dL1YLFZjCPO5e+rrt6N3BSAsxhFC/Xa07Cn+j7q5qyYS5huf6O6Hf7QAfYh+Qspzxi0swuocwlyD4qUIPb2jeMJ84xW1FerRexeQjKalfBDxYtkz/bNCPhphxBBhvkBpbTO8KVSjjBgmpDMrMpm3DZKwmECYz1HZ8h99vEOE1RBhMNJQ66c/NkqFYjXChlGENPrpsFgoFSIXYhRhvkHfvs1lo+QnLCYS5qq0GXF4V0CKctNIQijBlz3lb9RlAxNGuWk0Yb5BVzd8WiyECItzCKl6X7N7Y5uwUAq7aQxh/oqmjPH2rlCINWIcYY6iCvzocs0jDBkxjjC/Rk+neLBecgnDbhpLmLunZkfjGufCODeNJcyXaFmJQ4gzxT9DmKNlW+qgsLaW4KYJhJR8m2j3UwMIS1GExWTC/MMnKsLpcB0I1zw3LS5OSIkRbxFgjnBTgrCaTJjP0ZAwdi8RYYKbJhLeUBBrhgVM6LhpKeSmSYT5PAVu+uEKA8ZE0+ocwisKNvk/WiZcK8S5aSJhbj310fTgqrAWNOI3EOavUu+mF38rOYQuYtHvpomE6e/17xsOYSHOiDFsh/lDUPZw2QRzNCw11iLctJpIeGgri/SQ8t2M27tcrhBy01IcoY/NUu79shmSddHwCJGblsJuWiXYshH6nO5oegOEjpvGLMRqHJqtfKrddPgq5xHGJf0kPOSmn5ZNkaTTIhD63DRsxHmE2Z+WTZGk67tcLtpNq4sTfk7zBv+nRi7gpqWQm84lrKZ4uwY6p9xcN51LmP+wbI54De9twqSkP5cw+3N688XBR4swMZrOJ/wpvQvxdD2Xi3HTbyDMp/gbi2/vGjm/m0bsm8634WF6Q811wyZcS6hN5xPm0/sN8E9XufluOp8wvdumR+8bLmF8NJ1PmP05rTtuR5cuYS7c6ZcWJ/wlrcF0eBMmDLvpAuswtd+uGb7zCKPcdGHCV2kldBK+L9aENqQWIUxrQjyoRhCGatMFCFP7guagSBDGbkgtEGkO00p4WogkDMYamgkbBCHppiWfm84FpIUwbkOqRDNhIYow6KarQxgXTWkm9MXS2A2pKs2E65GEgU6f5mzhq2li3ZRmQrIujatNq4sQVlNLeO8njHbTBaq2z6klvPETRnf6NPcWZAfsI/R9Q4rm/nD3IkAYlfQXIUzvhul1gDDKTanep8m8XQsShvdNi+sU77VlTteDRgxvSBWo3i89eBdHSCT9Es173qFgGpX051be+fUUv8kPBtOoDanCPMLsv1IbSp233DHRtLQo4S+pDaWouwgShiu3+f1hmr+McXQ/302TIs2L7IsXL76kN9CA3jdCKTHopjGEL1yleRmid6RxblqIs+HhC7+yvywbIlFHpaCbkrVpyU/4IlL5NC9D0M1Vgps6NjwM2o1UivM91tu/BQmDblpKwkOBJrVFqaXdxjw3rX5JBEz5MgRdznPTUrIJH1L/12ZOr3JBIzpaiDCb4oLG0m6ovwh8kS95Gab7u5eWrkNG9LtpNdlJ07rNRmhYjW2hinMJs/9KvZNmmN2LoBHXSuRCTPTSh/S294QOwkYk3TSJMN3fD3Z1FOqDfZ1+ImF696B8OkjckEogzH6hIM4g7b5PcNOkoi37Pv1xxlKo1SdTYgJhuntfn2KNCG4aT5jive6QhiU/YINw03jCtPdNPn0INFFEgxFLmP6uwqdgOHUJi7GEqX23Ha3TRsw7/Woc4cPPy57zN4nJBGo3100LcT56SE+YsRR8qT+PMP2db0in/u8POZVbDOHDT3TUa6SYD1dRbhq9DLNU/m9Lji6vIgh/jdyIAh9N/38uIiz/d6Rswn/+FmVCagrSgG7vGkEjFv4eQZjmv602R+RStAhLf4QJs6n9DtR87ZJL0SL8/R/h9xX0JQpPR/ceIs4X1a9/hKIMff91VlJDL9ogN82FCR9+oTGKEiK+OIwIP3/9PQB4T7UFkbxdG3DT3K/HX30JMUthLROS902p0lrj1+Pj33yAlCZCv26dDVRw038eH/9jJRKhX7cF92+x/3F8/Ed25QC9frhU+v34+OsKAkK4seq3QvXr8fHr3ywjPlDwFuYbZCcNCDTHL78+WIArEEVJ4Z6/AYHm9euXX7KonVj2jL67hpewGH9HhK///SX7meZaNE5HF43DY2zDH/79M73dRJJ2r3/FJnz58ofysufyVPrBJnyz7Ik8mZrYSV++XFkTZrjXlpMuex5PJ+bNijtpJsNjE/LLnsYTavUJyxBmVpzwBwBc3WwI4t4gwhUruX1iMCHlm2vJkgFwhdMhiAfCVU6H/xeEALjahOU3q0/45pmQcpXBSd+sdD7cBUB+lWsaUJk/4pY9h6cWt9Je+qxnzXdwhv41sADkXzCL76Dy/uYe6ARrz9LJdp/nSAI5YkSTDkQmc76zs+loB8n++QQQbAKGO/MGeT+NqNgHYjL8eX90soG0t32GNNo/2djc2ADGcyehMjIM2nPGjLb38QUwgA4jgvh9NOP9pvWrstTf38SMoyYxsr8DY06Q3ZimNNpDA07kv37C3y6MeLazsbW57fHw/ZNNZKXtprfWeAS1b3smd4ateEZN2dTf2dpwCVEeYCQLceQhNIFw0yZkMtz2pmNSKtTHNiT2V2F9IsTNnb5rRLDhlkMIktDpPekvnuif1jlpQ1uWFb2l1oRQ4xKCEbGbUkZY9odG5Lpoqdm/bZI2ZDIMiq1PZsNQkF4wascOO9/ZCBIymfIJTgmOX5Lr0LLh1mbEOrTuUZZwjGpKnY7Eub/rdDrBC9Cal+H3HSkUl2U8mJN67bb/MnQ7dOeOxNsztq3A2B8JZ4JvNCII4T5nyIgb51GEsCxjY2lZ6umTbhuGtI2uac4GMn5e6EAdG73AJeXOYDo2VbM71QmHaErtQW0M9+hMZqommrWO7yJJN2amaXZregeKL07SnZgvoxOqOp4Z7bLPoNGE/Cayk0PBO4QM/vfMx+upM6nNTEETe5neFObGsoI4A8SOYcKBIoim7kOUjHFLHJtaXRTFrm5FAq5t1LqmpoltTu+iW7CsNu558yrrM1GdTscaXDOeGobRHVsTgRNCyxwrLVHQ1JpvBUWuw0wGmLwQi2OpG43O9zYRYNjvJ/+pw5wUQdfVljoW6jA9ccoNzHoL/hEAWCHMweljsT7gm7w0YcWKwE7w7fnZI7qMNQeG0Gq16mKlwgpdd8K8odQNvlxu6gKrKKIGmlknZkp92uGbcrtbV1it2yGmF2VDOL2PMsK+TYi8dONE4ptlnj+HmmavH7mJwMiGih67IBgdjuF0EaYhmpo6kJp829RgSjPvc3R4GjZwRxUrbH2A79kE8ApirHd1SWrX4B4VcWJfUzY0cWwtxjaAAGTdxGuYB7Mb1mSbBnyQ1iWsGEM4wvmi6RJu4dIUgigu4KS4gkbqCoows2/fUZCTTeyxM4BvSc79O4+spjPoFMQICT0W0TGwzlbYitm2DtpqhcW+jg80pd7GgExmKipijbdclIN7wxjrRNkQAdHwZhhDeIYI91wbIr4du/9AZeveWdQ7WFi/NVERelaPzJUnGtgzY3+yrApKXbe9hzMFdiy5lw3ANS0jMGhgBejxjzDYECrs2IJvGiKrNe1LwIhCV7Z+1lVWmLizkGawIkx38eKqOoLwHNvQXYcod5z1+/2zs+0ThAsrUY5yVBkIRXcR9AQwjXOqjE4ZNm6vxYIF3E8rm8Ch2vOVgJBtO5e1VZZVrSO5K7CqYxsZCMeWbXmwp+lekMkMWFiKA9eIMYR93EAQkcbtP3hoPza2cLYMM8o1jXXdLSOZ4JjOATeAU1P7AIZpA9cNmAxYm63bk5RUcFN3wh24B6u7txOci8qCotiEnbEimMTCk8BBxJqbZGMIz8hIw5NVGxxuW91HhBHBhqzgEY4FtuU8S06vw4qynwqEE1iG3nUd5KYD66SkCj5CiKYOoeCu5EwZloO9PpGTjonnzXVFLxjEEGZwpHHbCx8hg0oejBjRIuJ16BGCW7XspwSxFfxqZh00AULTyScjVBwXBkLIHi4hGK5iE8pjYiVLLbY+saY90CpCl6ys4TErY3cWMYQn4JebfXtXLWBDBncXUNaE3ZT323AmKCSha0MnmLhqIseaOoRgNYJQdAjRehPG9hR0jVWtD+ImGvyaJJzAJEjCcMa3Ss+NPcdI/N6W1wEjQd0KV+3/L4QVIhYAYVeEpWNfBScdQniYZsUhZCBbQN60zqiCZmVQtMAVhVyHYFSFKBOibejPIWBDsj+E2W7jZRrkswhFkjDkpfiWEDsVL5YiQsho3jpkfV4K1tWduwsKK07kZlOe1pWJYzZdVFgiliL7htehvz/MZBDB3nmGIPTZ0CLcjrDhFGcLj9BnQ8WNNGAyLx8iwrFQqdsprIOSvOvCMkGYkaDGUTRzOlXrM90NxSihKANiFhMRUr6L1A93wOAaez5sOWBDmzBiHcpTnw2DkcYlRNlBbBO7skBsyi5hhSAcCyQvFNhQwkNnQTyeDhRS4oyYHsq83iqPsmF529qmcGYgB22Ig+lmREJMJnSDSabTQlW596m9OkRGu9gNEooEIXo2tR50h77p1vxuygGxF2jChIy9m9b3Xk+ECKUYJw0SjiHjO5tc2IY2IQMJERkxw9kfaWis6VzWAadzAi2DCb2wK0/GOKYwDPnyBBIiK0zdDh2KBGHihTG8YUFkAgDsIx/tu0MYREhs28CtoarZ3AunQ4aRIbYAIWfVZnbGtyIeY9vQLtseYVKshO/GZWRNqNvNI+cQWrUt9lJcpaKjNlhHJQxqU5ZnUGyLE87uXw1BG8ve44duHmW+jPtKiRuhsvOcvI2EGgr8K2sIlAObO+cRJsz0UGHlLnqoS9lWzx4HbQ0rqG4tCmm6UmlZnYKsatrEDRwD1JG4gaINNY1ml2DSDNIFLMOZMdB7UtNr4SQV5RErOHMDQSNzB945RC4nI8MzHH8G/e2Gv+ZkRnjI3jmHh0gn6N1GxEZUU6+h/lAQcBzg4Qi1vcJU59HRTIMjEc7ZHc8AxgrQBfbaE7FuOslRnnRxfyh0jTa64xTdg9XUKTIjN4AFhxhFrQ7tsTnTnQfWMQUIsoLR7umzujJz3avc396AKnprCzdE+9vb+4AHP/Q5D7B5tr2HH8IWMeRkFEwvuKF5FFkVqwU158A5ElWY66AlWKdUp6/h2miro956fNTGhrt02491Dav+aIJtxJZmH+L6ljdUhKgo6A88vNbM8UbJ6Apo1GNL9fIIaiCC2jnZH52TrR83ihhyJkdu+sk6qI2FtmecI12X0QaSc6rtrnm5PahNp7WJ3vHCgjRw1UaWnzhHuu0miljXEIuG9jGU+tQxBtfRjel0agzaXnxguPPRaLTtaTQ665/zDDl7huuPiEEja8h3ew3MybLM48bX+xUS48RKzpV1tqyLM+uxGTMBcqpbXqDRZbhbk/NNDl1ZJmTHbn+N6hvEce79liHe0Go8ngLXlDszjVWEQWjQnMktYpylvTqUp9rMSa/wR5pC/TlJvIIyyWNNlMjn21ajbEivylON9TW6md4YtWo0vI1eTE2oJsa+grRtimNqXtQuIOiwFLHnRQooAAQoilZIHCr7cOvOWJupnXHLWB0XReqgzeyu8wYLyvCWQc2r9sVUnrTQi5DpoN3rtAczVRuEa0fKVZ6IogDlKNSkrFjvduZfQZ86xthUFQXq91qPjq+efZtQGOV7qKLvUfGFpWdFi7E3ep71rGf59F/gRpLnslsokAAAAABJRU5ErkJggg==;" vertex="1" parent="1">
          <mxGeometry x="520" y="225" width="50" height="50" as="geometry" />
        </mxCell>
        <mxCell id="t_fSvMSdJhtkblxSwFbt-37" value="Redis Cache" style="outlineConnect=0;dashed=0;verticalLabelPosition=bottom;verticalAlign=top;align=center;html=1;shape=mxgraph.aws3.redis;fillColor=#2E73B8;gradientColor=none;" vertex="1" parent="1">
          <mxGeometry x="510" y="340" width="50" height="43" as="geometry" />
        </mxCell>
        <mxCell id="t_fSvMSdJhtkblxSwFbt-39" value="" style="shape=parallelogram;perimeter=parallelogramPerimeter;whiteSpace=wrap;html=1;fixedSize=1;" vertex="1" parent="1">
          <mxGeometry x="630" y="220" width="160" height="65" as="geometry" />
        </mxCell>
        <mxCell id="t_fSvMSdJhtkblxSwFbt-38" value="" style="shape=image;verticalLabelPosition=bottom;labelBackgroundColor=default;verticalAlign=top;aspect=fixed;imageAspect=0;image=data:image/jpeg,/9j/4AAQSkZJRgABAQAAAQABAAD/2wCEAAkGBxAHBhUSExIVFRUVEhUaFhgVFRUVFRcYGBUXFhcSFRUYHiggGholGxgVITEhJSkrLi4uFx8zODMtNygtLisBCgoKDg0OGxAQGy0mICYzLy0tLSstLTAtListKy0tLS0tLS0tLS0tLS0tLS0tLS0tLS0tLS0tLS0tLS0tLS0tLf/AABEIAOEA4QMBEQACEQEDEQH/xAAbAAEAAgMBAQAAAAAAAAAAAAAAAwUBBAYCB//EAEUQAAIBAwEEBAgJCgcBAAAAAAABAgMEEQUGEiExE0FRcRQiYXOBkbHBFjI1NkJyobLRFSQzUlNig5Ki0iY0Q4LC4fAH/8QAGgEBAAMBAQEAAAAAAAAAAAAAAAEEBQMCBv/EADYRAQACAQIEAwYFBAAHAAAAAAABAgMEEQUSITETQVEVMmFxgbEiMzRSchQjkcEkNUJDYoKh/9oADAMBAAIRAxEAPwD7iAAAAAAAAAAAAAAAAAAAAAAAAAAAAAAAAAAAAAAAAAAAAAAAAAAAAAAAAAAAAAAAAAAAAAAAAAAAAAAAAAAAAAAAAAAAAAAAAAAAAAAAAAAAAAAAAAAAAAAAAAAAAAAAAAAAAAAAAAAAAAAAAAAAAAAAAAAAAAAAAAAAAAAAAAAAAAAAAAAAAAAAAAAAAAAAAAAAAAAAAAAAAAAAAAAAAAAAAAAAAAAAAAAAAAAAAAAAAAAAAAAAAAAAAAAAAAAAAAAAAAAAAAAAAAAAAAAAAAAAAAAAAAAAAAAAAAAAAAAAAAAAAAAAAAAAAAAAAAAAAAAAAAAAAAAAAAAAAAAAAAAAAAAAAAAAAAAAAAAAAAAAAAAAAAAABEq8XLGVnvPPPXfbeE8sx5f/AB7nNQjltLvJmYjuiImezFOqqnJp9zyItE9pTMTHd7JQ8zkoRy+CXaRM7dyI36Q0Xrdqn+npfzx/E4/1OL90O/8AS5/2T/hs0LqFzHMJxl9Vp+w6UyVv7s7ud8d6e9Ex8057eAABDXuYW+N6Sjl4WWll9iPNr1r3l6rS1vdjdKnk9PLIEPhMPCNzeW/jO7njjtweOeu/Lv1euS3LzbdEx7eWHwQEFve0rmbUJxk481GSbXfg8VyVtO1Ze7Y7162jZsHt4YAhqXdOlU3XOKfY2s+oCcABBG7pyq7u/He7MrIE4Gtc31K1+PNLvfEI3ere7p3K8SSl3BKcAAA+S6DJ/lujxf6WPW+1HzGnmZzV+cfd9nrPyL/Kfs7nbn5vS+tD7yNjiP5E/T7vnuE/qY+v2lXf/O3mnV70cOF9rLXGu9Pk7I1mG1tQ/wAnP6kvYc8vuS6YfzK/NzGyui299o6nOmnJzmm+6bSM7R6XFkxc1o69fvLX4hrc2LPNaW6bR9oZ1zR46LR8It24ODTlHL3ZLPEanTxgjxcXTbu86TVTqbeDm679pdRZ1/CbWM/1op+s0qW5qxLJyV5LzX0TZPcvB1Ac5tks06Hn4e1GdxDtT5w1OF+9f+MujXA0GWIkc5D57y8wjPj9Z9Gnb/l//s6MvswfIkVelaNDTbmpOLk3NtvOO3PDBWwaauG0zE91rUay+eta2jszrupS06FPdWXOpGPHqyNTmnFEbec7J0mnjNNt57RMrJPKLMdlOHL65RdXU5tc401JehhE93RWFdXFpGXag9Qkq1FTpOT5JNgcrpkHLU6dR85ykw8uj1O68DspT60uHe+CCZaGl6VGdLpKq35z48eOM9SBsh1ewVilWpeK4tZS60Cei6tKyubaM19JJhKYAB8h0mtG31SlOXKNSLfdvLj6j5XDaK5ItPlMfd9rqaTfDate+0/Z1e1muW97orhTqKcnKGEvI03k1NbqcV8XLWfT7sXh2kzYtRzXrtHX7NPYvVaGnwqKpNQbaazyOPDs2PFzReVji2my5ZrNI329HTfCazX+vD1mlOtwfuZHs/U/slu3NVVtOlKLynBtP0HW9otjmY9HDHWa5YifVTbHXEKWgx3pRXj1ObS+mypoL1rgjeY8/vK9xOl7aidontHl8IQbR6ktSpeDUPHnNpSceKiu1s56vN4keFi6zLpodPOK3j5elY6x6zLoKcVYacuvcp9XXurkaER4dPkzbf3cvzlz1lG81yDqur0MHJ7kVHMsLreTPxxn1G9t+WPJp5J02lmKRTmnz69Po2NKvK9nrHg1ee/mO9CeMZ48mdMGTJjy+Fed/i56jFhyYfHxRt5TDG21RUrejJ8lWi36OJHEZiK1me0SnhUTNrxHpKOlb3uq0+m6fok+MIKOcLqcn2kRTUZfxc3Lv2jYtk0mCfD5ObbvLe2b1SpeKdOqsVaUsSxyfY0ddJnteJpf3ocNbpq45rkx+7Kp1e8lZbUycFvTlSjGC8r4cfJ1lXPkmmpnl7zERC9p8VcmjjmnaImZlNdWt/p9v0yuOklFZlDd4NdkTpfHqMceJz7/AA2csWXSZbeH4e2/ad1/pd8tRsI1F9Jep9aL2HLGSkWhnajDOHJNJ8lfoV5Uub65jOWVTqpR4YwmnwOGly2ve8T5S76zDXHjxzWOsxvKn2pt7mNxBusnCVddGt34nZl9ZU1tMsTvNukz0+DQ4dkwTWdqdYjr17rzS7S7t6+a1dVI45KG7x7cl3DjzVtve28M3UZtPau2OkxLxJb+0jXU6XtLUKXmk2fk6cJ0nzhN+p8gQ97Q1nT05xXObUV6QmWvOj4PqNtHsi/XjiCXvaV5o04/rVECy3prdgu5BKK/gqlnNfuv2AaWzM97SY+Rtfbn3hELUJAPi58i+8YfBECz0fRKusb244pRxlyzj7EWMGlvn7Kmq1tNNtzb/Rrapp89MunTnjKWfFba+1I8ZsM4rcsuuDUVz0567/V9ItPm4vM+438f6f6Plcn6v6qHZnZ621HSVUnHMnKeXnsm0vsRS0ekxZcfNaOvX7tLX6/NhzclJ6dPtCSpbvZfVKfRvNGrLdcWlmL7c9nI9Wp/S5K8vuz0l4jJGuw254/HXrDsODRrMRR3e0dGjVcIRnVkuapxzj0lO2spFuWsbyvU0GW0Ra0xWPWVVTv5X+1dFulKniE8KXN+Uq+NOTUVmY27rk6euHSXiLRPWOzb22p9Lb0Yvk60c92Vk68RjetY+LlwmdrXn/xl0cIKEcLkvcaEdGVM7zu5ugug25mlylQTffkzo/DrJj1hrX/FoIn0sOkqm3WX9Gjld+By763f4Ii8xw+Y+LpakVKk12p+w0bdYZdekxLndiHu6fUj1RrzS7sRKHD/AHLV9JafFo/u1t6xDOy/ypeefj91k6P38n8ka/8AKw/x/wBs7X8qHn4+8867tX5nDP8Aufxl0MeRoR2Zinj85v4fvJR5sy/NNoV2VY49KB5vF/8AneuU6fVBbzB5pNQ+XKPdIEvG0vi06cuyogiy5pvMF3B6RXst20k/3X7ANDZmO7pUfK2wiFsEmQPi58i+8YfIC82a15aLvJwclLD4Pimi5pNV/T79N2dr9DOp2mJ22aevan+Vr91N3dWEku45anN4t+d30mm/p8fJvu+hWi/w6vM/8Tcx/p/o+Yyfqp+bW2I+QI/XqffkeeH/AJEfX7y7cV/Uz8o+0Mba0t/RXJc4SjJehkcQr/a5vTqnhVv+I5fWJht3NaVXZ9zjzdHK/l4+863vNsHNX0V6Uiup5beqv2Qq0KOhwalFPDc22s5y85OGhtirh38/Na4nTLbUTExO3TbZpU9SWpbY03H4kYyjF9T7Wn3nHxvE1Vdu0dlidPOHRWi3edpn4LHbSlKWlRnHOadSEvQnxO/EKz4fNHlO6rwu0eLNJ/6omFta31O6s1UUlutZzlcO0tY8tL1i26lkw3peabdVFoT/ACjtHWuF8RR3Ivt8qKemnxc9svp0hoauPB01MM9+8mpVFp21tOrLhCpBwb6k+rJGWfD1UXntMbGGPG0dscd4ndc6pqNOxsJTcly4cebxwwXM2auOm6jp8F8uSKxDQ2PtpW+jpy4SqSlN/wC7/o4aDHNcW895ndZ4nlrfPMV7RtCLZf5UvPPx+6zzop/Hk+b3r/ysP8f9s7ZPo6NGT5Rrxy+w88Q6VrM+qeF9ZvHnNZX9OpGa4NPODQrMTHRmTExPVUr5zfw/eS8+aTaCDjbxqrnTmn6OsEodCfhN3VrP6Twu4EJb/wCXKPdIIls6vaeGWEornzXegmWvpGpwqW6jN7s48Gnw5daBui1vUIzodFB70pcOHUvKETKxsIxoWsYJpuMeoJgndqD5Pln7cBKbe7wOWewlFv8AS1P6fwMr2Vj9Wz7ay/tqx8A6P7ap6of2j2VT1PbOX9tT4B0f21T1Q/tHsqnqe2cv7anwEo/tqn9HuRPsqnqe2sv7YdLRtI0rNU+aUd3ytGjXHEV5fJlWyTN+fzY0+xhp9sqcFiKbeM54ttvi/KyMWOuOvLXsnNmvmtzXnq9XlrG8tpU5LMZLDXIm9IvE1ns848lsdovXvDFraRtLVU4rxYrCT48PSKUitYrHYyZLZLze3dT1tkLWrXct2Sy22lJpNlS3D8U25uq/XiuorXl3j/Cxp6PRp14TUEnTi1DHBJPnwO9dPjrMTEdlSdVlmtq79J6z827OG/FppNNccnWY3iYlwiZid4UU9kbaVTKU0m+MVNqPqKU8PxTPTePq0Y4pniNuk/HZcWlpCzoKEIqMVySLmOlaRy1jZRyZL5Lc153eL+wp6hQ3KkVJezuZ5yYqZK8to3esObJitzUnZWUNlLalVUmpT3X4qnJtL0FaugxRO87z9Vu/E89q8sbR8oXajuou9ukM/rLXs9Pp2decoRw6kt6fFvLxjr5HPHhpSZmvm65M18kRFp7dnu+s4X9s4TjvRfNHrJjrkry27IxZb4rRek9Wjpmg09MruUHNvGEpSbSXYjhi0lcduaN1jUa3Jmry22/w3lZw8L6THjYxnL5dxahS80leiq9JxksprDBLxaWsLSjuQWEvKEwVLSFW4jNrxo8nlhGycJaVzpdG6lmUFntTaf2MI2a/5At/1X/PL8QbJ7PS6VnV3oxaeOuTftCWxO3jN5f/ALn+IEu6BkAAAAAAAAAAAAAAAAAAAAAAAAAAAAAAAAAAAAAAAAAAAAAAAAAAAAAAAAAAAAAAAAAAAAAAAAAAAAAAAAAAAAAAAAAAAAAAAAAAAAAAAAAAAAAAAAAAAAAAAAAAAAAAAAAAAAAAAAAAAAAAAAAAAAAAAAAAAAAAAAAAAAAAAAAAAAAAAAAAAAAAAAAAAAAAAAAAAAAAAAAAAAAAAAAAAAAAAAAAAAAAAAAAAAAAAAAAAAAAAAAAAAAAAAAAAAAAAAAAAAAAAAAAAAAAAAAAAAAAAAAAAAAAAAAAAAAAAAAAAAAAAAAAAAAAAAAAAAAAAAAAAAAAAAAAAAAAAAAAAAAAAAAAAAAAAAAAAAAAAAAAAAAAAAAAAAAAAAAAAAAAAAAAAAAAAAAAAAAAAAAAAAAH/9k=;" vertex="1" parent="1">
          <mxGeometry x="680" y="222.5" width="60" height="60" as="geometry" />
        </mxCell>
        <mxCell id="t_fSvMSdJhtkblxSwFbt-41" style="edgeStyle=orthogonalEdgeStyle;rounded=0;orthogonalLoop=1;jettySize=auto;html=1;entryX=0.55;entryY=0.031;entryDx=0;entryDy=0;entryPerimeter=0;" edge="1" parent="1" source="t_fSvMSdJhtkblxSwFbt-22" target="t_fSvMSdJhtkblxSwFbt-39">
          <mxGeometry relative="1" as="geometry" />
        </mxCell>
        <mxCell id="t_fSvMSdJhtkblxSwFbt-42" style="edgeStyle=orthogonalEdgeStyle;rounded=0;orthogonalLoop=1;jettySize=auto;html=1;entryX=0.125;entryY=0.462;entryDx=0;entryDy=0;entryPerimeter=0;" edge="1" parent="1" source="t_fSvMSdJhtkblxSwFbt-27" target="t_fSvMSdJhtkblxSwFbt-39">
          <mxGeometry relative="1" as="geometry" />
        </mxCell>
      </root>
    </mxGraphModel>
  </diagram>
</mxfile>
